<svg width="30" height="30" viewBox="0 0 30 30" fill="none" xmlns="http://www.w3.org/2000/svg">
<path d="M13.5597 14.7472L10.7898 14.9176C10.7424 14.6809 10.6406 14.4678 10.4844 14.2784C10.3281 14.0843 10.1222 13.9304 9.86648 13.8168C9.61553 13.6984 9.31487 13.6392 8.96449 13.6392C8.49574 13.6392 8.10038 13.7386 7.77841 13.9375C7.45644 14.1316 7.29545 14.392 7.29545 14.7188C7.29545 14.9792 7.39962 15.1993 7.60795 15.3793C7.81629 15.5592 8.17377 15.7036 8.6804 15.8125L10.6548 16.2102C11.7154 16.428 12.5062 16.7784 13.027 17.2614C13.5478 17.7443 13.8082 18.3788 13.8082 19.1648C13.8082 19.8797 13.5975 20.5071 13.1761 21.0469C12.7595 21.5866 12.1866 22.008 11.4574 22.3111C10.733 22.6094 9.89725 22.7585 8.95028 22.7585C7.50616 22.7585 6.35559 22.4579 5.49858 21.8565C4.64631 21.2505 4.14678 20.4266 4 19.3849L6.97585 19.2287C7.06581 19.669 7.28362 20.0052 7.62926 20.2372C7.97491 20.4645 8.41761 20.5781 8.95739 20.5781C9.48769 20.5781 9.91383 20.4763 10.2358 20.2727C10.5625 20.0644 10.7282 19.7969 10.733 19.4702C10.7282 19.1955 10.6122 18.9706 10.3849 18.7955C10.1577 18.6155 9.80729 18.4782 9.33381 18.3835L7.4446 18.0071C6.37926 17.794 5.58617 17.4247 5.06534 16.8991C4.54924 16.3736 4.29119 15.7036 4.29119 14.8892C4.29119 14.1884 4.48059 13.5848 4.85938 13.0781C5.2429 12.5715 5.7803 12.1809 6.47159 11.9062C7.16761 11.6316 7.98201 11.4943 8.91477 11.4943C10.2926 11.4943 11.3769 11.7855 12.1676 12.3679C12.9631 12.9503 13.4271 13.7434 13.5597 14.7472Z" fill="#AB18F0"/>
<path d="M18.739 16.2386V22.5455H15.7134V8H18.6538V13.5611H18.7816C19.0278 12.9171 19.4255 12.4129 19.9748 12.0483C20.524 11.679 21.2129 11.4943 22.0415 11.4943C22.7991 11.4943 23.4596 11.66 24.0231 11.9915C24.5913 12.3182 25.0316 12.7893 25.3441 13.4048C25.6613 14.0156 25.8176 14.7472 25.8129 15.5994V22.5455H22.7873V16.1392C22.792 15.4669 22.6216 14.9437 22.2759 14.5696C21.935 14.1955 21.4568 14.0085 20.8413 14.0085C20.4293 14.0085 20.0647 14.0961 19.7475 14.2713C19.435 14.4465 19.1888 14.7022 19.0089 15.0384C18.8337 15.3698 18.7437 15.7699 18.739 16.2386Z" fill="#AB18F0"/>
</svg>
